<?xml version="1.0" encoding="UTF-8" standalone="no"?>
<!-- Generator: Adobe Illustrator 19.0.0, SVG Export Plug-In . SVG Version: 6.00 Build 0)  -->

<svg
   version="1.1"
   id="Layer_1"
   x="0px"
   y="0px"
   viewBox="0 0 600 600"
   xml:space="preserve"
   sodipodi:docname="cashier-machine-cashier-svgrepo-com.svg"
   width="600"
   height="600"
   inkscape:export-filename="../e3d26ef1/icon-2.png"
   inkscape:export-xdpi="96"
   inkscape:export-ydpi="96"
   inkscape:version="1.2.1 (0f2f062aeb, 2022-09-21, custom)"
   xmlns:inkscape="http://www.inkscape.org/namespaces/inkscape"
   xmlns:sodipodi="http://sodipodi.sourceforge.net/DTD/sodipodi-0.dtd"
   xmlns="http://www.w3.org/2000/svg"
   xmlns:svg="http://www.w3.org/2000/svg"><defs
   id="defs306"><rect
     x="89.134169"
     y="43.01402"
     width="333.97497"
     height="34.572675"
     id="rect463" /></defs><sodipodi:namedview
   id="namedview304"
   pagecolor="#505050"
   bordercolor="#eeeeee"
   borderopacity="1"
   inkscape:showpageshadow="0"
   inkscape:pageopacity="0"
   inkscape:pagecheckerboard="0"
   inkscape:deskcolor="#505050"
   showgrid="false"
   showguides="true"
   inkscape:zoom="1.4754962"
   inkscape:cx="410.03157"
   inkscape:cy="230.43096"
   inkscape:window-width="1920"
   inkscape:window-height="985"
   inkscape:window-x="1920"
   inkscape:window-y="0"
   inkscape:window-maximized="1"
   inkscape:current-layer="Layer_1"><sodipodi:guide
     position="50.013109,615.07522"
     orientation="1,0"
     id="guide517"
     inkscape:locked="false" /><sodipodi:guide
     position="549.95208,614.09444"
     orientation="1,0"
     id="guide519"
     inkscape:locked="false" /><sodipodi:guide
     position="261.63325,508.61614"
     orientation="0,-1"
     id="guide521"
     inkscape:locked="false" /><sodipodi:guide
     position="27.381915,618.66442"
     orientation="0,-1"
     id="guide2598"
     inkscape:locked="false" /></sodipodi:namedview>
<path
   style="fill:#458fde;stroke-width:0.947612"
   d="M 525.69034,220.30665 H 323.68227 c -8.62606,0 -15.61946,-6.56245 -15.61946,-14.65697 v -64.48897 c 0,-8.09451 6.9934,-14.65696 15.61946,-14.65696 h 202.00807 c 8.62606,0 15.61946,6.56245 15.61946,14.65696 v 64.48988 c 0,8.09453 -6.9934,14.65606 -15.61946,14.65606 z"
   id="path173" />
<path
   style="fill:#4f5aa8;stroke-width:0.947612"
   d="m 324.72408,205.65059 v -64.48988 c 0,-8.09451 6.9934,-14.65696 15.61945,-14.65696 h -16.66029 c -8.62606,0 -15.61944,6.56245 -15.61944,14.65696 v 64.48988 c 0,8.09453 6.99338,14.65697 15.61944,14.65697 h 16.66029 c -8.62605,-6.6e-4 -15.61945,-6.56244 -15.61945,-14.65697 z"
   id="path175" />
<rect
   x="333.05374"
   y="155.81767"
   style="fill:#e5e5e5;stroke-width:0.947612"
   width="183.26512"
   height="35.175968"
   id="rect177" />
<g
   id="g183"
   transform="matrix(0.97823315,0,0,0.91795327,49.305481,119.17573)">
	<polygon
   style="fill:#ffffff"
   points="358.897,78.237 372.379,78.237 410.7,39.917 397.217,39.917 "
   id="polygon179" />
	<polygon
   style="fill:#ffffff"
   points="390.121,78.237 417.086,78.237 455.406,39.917 428.441,39.917 "
   id="polygon181" />
</g>
<path
   style="fill:#999999;stroke-width:0.947612"
   d="M 525.69034,581.83978 H 73.775983 c -8.626061,0 -15.619449,-6.56245 -15.619449,-14.65697 V 296.52246 c 0,-16.18993 13.985799,-29.313 31.237917,-29.313 H 510.07089 c 17.2531,0 31.23792,13.12399 31.23792,29.313 v 270.66035 c 7.1e-4,8.09452 -6.99241,14.65697 -15.61847,14.65697 z"
   id="path185" />
<path
   style="fill:#ffd652;stroke-width:0.947612"
   d="M 525.69034,581.83978 H 73.775983 c -8.626061,0 -15.619449,-6.56245 -15.619449,-14.65697 V 486.08256 H 541.3098 v 81.10025 c 0,8.09452 -6.9934,14.65697 -15.61946,14.65697 z"
   id="path187" />
<rect
   x="58.15654"
   y="486.08258"
   style="fill:#f7edbc;stroke-width:0.947612"
   width="483.15326"
   height="18.633533"
   id="rect189" />
<path
   style="fill:#fb9d46;stroke-width:0.947612"
   d="m 58.156534,556.75945 v 10.42245 c 0,8.09451 6.993388,14.65696 15.619449,14.65696 H 525.69132 c 8.62606,0 15.61944,-6.56245 15.61944,-14.65696 v -10.42245 z"
   id="path191" />
<ellipse
   style="fill:#ff7452;stroke-width:0.947612"
   cx="299.73318"
   cy="532.98358"
   id="circle193"
   rx="22.908264"
   ry="21.496628" />
<rect
   x="416.35617"
   y="431.36337"
   style="fill:#458fde;stroke-width:0.947612"
   width="33.32058"
   height="31.267324"
   id="rect195" />
<rect
   x="482.99832"
   y="431.36337"
   style="fill:#5ac779;stroke-width:0.947612"
   width="33.32058"
   height="31.267324"
   id="rect197" />
<g
   id="g217"
   transform="matrix(0.97823315,0,0,0.91795327,49.305481,119.17573)">
	<rect
   x="307.09399"
   y="280.48199"
   style="fill:#458fde"
   width="34.062"
   height="34.062"
   id="rect199" />
	<rect
   x="375.21799"
   y="280.48199"
   style="fill:#458fde"
   width="34.062"
   height="34.062"
   id="rect201" />
	<rect
   x="170.84399"
   y="340.091"
   style="fill:#458fde"
   width="170.312"
   height="34.062"
   id="rect203" />
	<rect
   x="170.84399"
   y="280.48199"
   style="fill:#458fde"
   width="34.062"
   height="34.062"
   id="rect205" />
	<rect
   x="238.96899"
   y="280.48199"
   style="fill:#458fde"
   width="34.062"
   height="34.062"
   id="rect207" />
	<rect
   x="34.595001"
   y="340.091"
   style="fill:#458fde"
   width="34.062"
   height="34.062"
   id="rect209" />
	<rect
   x="102.719"
   y="340.091"
   style="fill:#458fde"
   width="34.062"
   height="34.062"
   id="rect211" />
	<rect
   x="34.595001"
   y="280.48199"
   style="fill:#458fde"
   width="34.062"
   height="34.062"
   id="rect213" />
	<rect
   x="102.719"
   y="280.48199"
   style="fill:#458fde"
   width="34.062"
   height="34.062"
   id="rect215" />
</g>
<rect
   x="482.99832"
   y="376.64511"
   style="fill:#e24642;stroke-width:0.947612"
   width="33.32058"
   height="31.267324"
   id="rect219" />
<path
   style="fill:#aff078;stroke-width:0.947612"
   d="M 500.7004,349.28641 H 365.33348 c -8.62607,0 -15.61945,-6.56243 -15.61945,-14.65695 v -25.40528 c 0,-8.09451 6.99338,-14.65696 15.61945,-14.65696 h 135.36593 c 8.62607,0 15.61946,6.56245 15.61946,14.65696 v 25.40528 c 0,8.09452 -6.99242,14.65695 -15.61847,14.65695 z"
   id="path221" />
<g
   id="g227"
   transform="matrix(0.97823315,0,0,0.91795327,49.305481,119.17573)">
	<polygon
   style="fill:#ffffff"
   points="425.247,191.069 365.638,250.678 378.944,250.678 438.553,191.069 "
   id="polygon223" />
	<path
   style="fill:#ffffff"
   d="m 461.439,191.069 h -5.322 l -59.609,59.609 h 30.869 l 49.065,-49.065 c -2.224,-6.145 -8.092,-10.544 -15.003,-10.544 z"
   id="path225" />
</g>
<path
   style="fill:#aff078;stroke-width:0.947612"
   d="m 365.33348,294.56814 c -8.62607,0 -15.61945,6.56245 -15.61945,14.65696 v 14.00522 l 30.54337,-28.66126 h -14.92392 z"
   id="path229" />
<path
   style="fill:#e5e5e5;stroke-width:0.947612"
   d="M 261.20545,349.28641 H 127.92216 v -208.1257 c 0,-8.09451 6.9934,-14.65696 15.61945,-14.65696 h 102.04537 c 8.62606,0 15.61945,6.56245 15.61945,14.65696 v 208.1257 z"
   id="path231" />
<path
   style="fill:#cccccc;stroke-width:0.947612"
   d="m 148.49635,126.50375 h -4.95572 c -8.62606,0 -15.61944,6.56245 -15.61944,14.65696 v 208.1257 h 73.07401 z"
   id="path233" />
<path
   d="m 525.69034,227.63558 c 12.91855,0 23.42869,-9.86341 23.42869,-21.98499 v -64.48988 c 0,-12.12249 -10.51112,-21.98498 -23.42869,-21.98498 H 323.68227 c -12.91855,0 -23.42869,9.86341 -23.42869,21.98498 v 64.48988 c 0,12.1225 10.51111,21.98499 23.42869,21.98499 h 93.1943 v 32.24495 H 269.01567 V 141.16071 c 0,-12.12249 -10.51111,-21.98498 -23.42869,-21.98498 H 143.54161 c -12.91854,0 -23.42868,9.86341 -23.42868,21.98498 V 259.88053 H 89.394451 c -21.531888,0 -39.04813,16.43686 -39.04813,36.64193 v 214.96537 c 0,4.04818 3.495227,7.32803 7.809235,7.32803 4.314008,0 7.809235,-3.27985 7.809235,-7.32803 V 493.4115 H 378.86928 c 4.31402,0 7.80924,-3.27985 7.80924,-7.32802 0,-4.04817 -3.49522,-7.32801 -7.80924,-7.32801 H 65.965769 V 296.52338 c 0,-12.12249 10.511115,-21.98498 23.428682,-21.98498 h 30.717499 v 67.42091 H 97.72509 c -4.314012,0 -7.809235,3.27985 -7.809235,7.32802 0,4.04818 3.495223,7.32803 7.809235,7.32803 H 291.4035 c 4.31402,0 7.80924,-3.27985 7.80924,-7.32803 0,-4.04817 -3.49522,-7.32802 -7.80924,-7.32802 H 269.01567 V 274.5384 h 241.0562 c 12.91855,0 23.42868,9.86341 23.42868,21.98498 V 478.75547 H 420.52147 c -4.314,0 -7.80923,3.27984 -7.80923,7.32801 0,4.04817 3.49523,7.32802 7.80923,7.32802 h 112.97908 v 73.77223 c 0,4.04175 -3.50305,7.32802 -7.80923,7.32802 H 73.775983 c -4.307161,0 -7.809236,-3.28719 -7.809236,-7.32802 V 544.7104 c 0,-4.04817 -3.495227,-7.32802 -7.809234,-7.32802 -4.314009,0 -7.809236,3.27985 -7.809236,7.32802 v 22.47333 c 0,12.12249 10.511115,21.98498 23.428685,21.98498 H 525.69229 c 12.91855,0 23.42869,-9.86341 23.42869,-21.98498 V 296.52246 c 0,-20.20507 -17.51624,-36.64193 -39.04813,-36.64193 H 432.49798 V 227.63558 Z M 135.7314,341.95748 V 141.16071 c 0,-4.04175 3.50305,-7.32802 7.80923,-7.32802 h 102.04538 c 4.30715,0 7.80923,3.28719 7.80923,7.32802 V 341.95748 Z M 315.87303,205.65059 v -64.48988 c 0,-4.04175 3.50306,-7.32802 7.80924,-7.32802 h 202.00807 c 4.30716,0 7.80924,3.28719 7.80924,7.32802 v 64.48988 c 0,4.04175 -3.50305,7.32803 -7.80924,7.32803 H 323.68227 c -4.30618,0 -7.80924,-3.28719 -7.80924,-7.32803 z"
   id="path235"
   style="stroke-width:0.947612" />
<path
   d="m 524.12908,190.99364 v -35.17597 c 0,-4.04818 -3.49523,-7.32802 -7.80923,-7.32802 H 333.05373 c -4.314,0 -7.80923,3.27984 -7.80923,7.32802 v 35.17597 c 0,4.04817 3.49523,7.32802 7.80923,7.32802 h 183.26514 c 4.31401,0 7.81021,-3.27985 7.81021,-7.32802 z m -15.61945,-7.32803 H 340.86394 v -20.51992 h 167.64569 z"
   id="path237"
   style="stroke-width:0.947612" />
<path
   d="m 330.45066,532.98355 c 0,-15.89437 -13.7794,-28.82465 -30.7175,-28.82465 -16.93811,0 -30.71749,12.93028 -30.71749,28.82465 0,15.89436 13.77938,28.82465 30.71749,28.82465 16.9381,0 30.7175,-12.92937 30.7175,-28.82465 z m -45.81653,0 c 0,-7.81179 6.77329,-14.16861 15.09903,-14.16861 8.32476,0 15.09903,6.35591 15.09903,14.16861 0,7.81178 -6.77328,14.1686 -15.09903,14.1686 -8.32477,0 -15.09903,-6.35682 -15.09903,-14.1686 z"
   id="path239"
   style="stroke-width:0.947612" />
<path
   d="m 449.67771,424.03535 h -33.32057 c -4.314,0 -7.80924,3.27985 -7.80924,7.32802 v 31.26733 c 0,4.04817 3.49524,7.32802 7.80924,7.32802 h 33.32057 c 4.31401,0 7.80924,-3.27985 7.80924,-7.32802 v -31.26733 c 0,-4.04817 -3.49523,-7.32802 -7.80924,-7.32802 z m -7.8102,31.26732 H 424.1654 v -16.61128 h 17.70211 z"
   id="path241"
   style="stroke-width:0.947612" />
<path
   d="m 516.31887,424.03535 h -33.32058 c -4.31401,0 -7.80923,3.27985 -7.80923,7.32802 v 31.26733 c 0,4.04817 3.49522,7.32802 7.80923,7.32802 h 33.32058 c 4.31401,0 7.80923,-3.27985 7.80923,-7.32802 v -31.26733 c 7.1e-4,-4.04817 -3.49522,-7.32802 -7.80923,-7.32802 z m -7.80924,31.26732 h -17.70211 v -16.61128 h 17.70211 z"
   id="path243"
   style="stroke-width:0.947612" />
<path
   d="m 341.90479,407.91334 c 0,4.04817 3.49523,7.32802 7.80924,7.32802 h 33.32057 c 4.31402,0 7.80924,-3.27985 7.80924,-7.32802 v -31.26732 c 0,-4.04818 -3.49522,-7.32803 -7.80924,-7.32803 h -33.32057 c -4.31401,0 -7.80924,3.27985 -7.80924,7.32803 z m 15.61946,-23.9393 h 17.70209 v 16.61127 h -17.70209 z"
   id="path245"
   style="stroke-width:0.947612" />
<path
   d="m 457.48695,376.64509 c 0,-4.04817 -3.49523,-7.32802 -7.80924,-7.32802 h -33.32057 c -4.314,0 -7.80924,3.27985 -7.80924,7.32802 v 31.26733 c 0,4.04818 3.49524,7.32802 7.80924,7.32802 h 33.32057 c 4.31401,0 7.80924,-3.27984 7.80924,-7.32802 z M 441.86751,400.5844 H 424.1654 v -16.61128 h 17.70211 z"
   id="path247"
   style="stroke-width:0.947612" />
<path
   d="m 208.62151,462.63162 c 0,4.04817 3.49522,7.32802 7.80924,7.32802 h 166.60483 c 4.31401,0 7.80924,-3.27985 7.80924,-7.32802 v -31.26733 c 0,-4.04818 -3.49523,-7.32802 -7.80924,-7.32802 H 216.43075 c -4.31402,0 -7.80924,3.27984 -7.80924,7.32802 z m 15.61846,-23.93931 h 150.9854 v 16.61128 h -150.9854 z"
   id="path249"
   style="stroke-width:0.947612" />
<path
   d="m 216.43075,415.24136 h 33.32057 c 4.314,0 7.80924,-3.27985 7.80924,-7.32802 v -31.26732 c 0,-4.04818 -3.49524,-7.32803 -7.80924,-7.32803 h -33.32057 c -4.31402,0 -7.80924,3.27985 -7.80924,7.32803 v 31.26732 c 0,4.04817 3.49522,7.32802 7.80924,7.32802 z m 7.80922,-31.26732 h 17.70211 v 16.61127 h -17.70211 z"
   id="path251"
   style="stroke-width:0.947612" />
<path
   d="m 316.39345,415.24136 c 4.314,0 7.80925,-3.27985 7.80925,-7.32802 v -31.26732 c 0,-4.04818 -3.49525,-7.32803 -7.80925,-7.32803 h -33.32057 c -4.31402,0 -7.80924,3.27985 -7.80924,7.32803 v 31.26732 c 0,4.04817 3.49522,7.32802 7.80924,7.32802 z m -25.51134,-31.26732 h 17.70211 v 16.61127 h -17.70211 z"
   id="path253"
   style="stroke-width:0.947612" />
<path
   d="M 116.46804,424.03535 H 83.147456 c -4.314009,0 -7.809235,3.27985 -7.809235,7.32802 v 31.26733 c 0,4.04817 3.495226,7.32802 7.809235,7.32802 h 33.320584 c 4.31401,0 7.80922,-3.27985 7.80922,-7.32802 v -31.26733 c 0,-4.04817 -3.49521,-7.32802 -7.80922,-7.32802 z m -7.80924,31.26732 H 90.956696 V 438.69139 H 108.6588 Z"
   id="path255"
   style="stroke-width:0.947612" />
<path
   d="m 183.11016,424.03535 h -33.32057 c -4.31402,0 -7.80924,3.27985 -7.80924,7.32802 v 31.26733 c 0,4.04817 3.49522,7.32802 7.80924,7.32802 h 33.32057 c 4.31401,0 7.80924,-3.27985 7.80924,-7.32802 v -31.26733 c 0,-4.04817 -3.49523,-7.32802 -7.80924,-7.32802 z m -7.81022,31.26732 h -17.70209 v -16.61128 h 17.70209 z"
   id="path257"
   style="stroke-width:0.947612" />
<path
   d="m 124.27726,376.64509 c 0,-4.04817 -3.49521,-7.32802 -7.80922,-7.32802 H 83.147456 c -4.314009,0 -7.809235,3.27985 -7.809235,7.32802 v 31.26733 c 0,4.04818 3.495226,7.32802 7.809235,7.32802 h 33.320584 c 4.31401,0 7.80922,-3.27984 7.80922,-7.32802 z M 108.6588,400.5844 H 90.956696 V 383.97312 H 108.6588 Z"
   id="path259"
   style="stroke-width:0.947612" /><path
   d="m 29.316446,-11.333275 c 0,-4.048171 -3.49521,-7.328021 -7.80922,-7.328021 h -33.320583 c -4.314009,0 -7.809235,3.27985 -7.809235,7.328021 v 31.26733 c 0,4.04818 3.495226,7.32802 7.809235,7.32802 h 33.320583 c 4.31401,0 7.80922,-3.27984 7.80922,-7.32802 z m -15.61846,23.93931 H -4.0041168 V -4.0052449 H 13.697986 Z"
   id="path259-7"
   style="fill:#ff7700;fill-opacity:1;stroke-width:0.947612" /><path
   d="m 619.61501,-11.343172 c 0,-4.04817 -3.49521,-7.32802 -7.80922,-7.32802 h -33.32058 c -4.31401,0 -7.80923,3.27985 -7.80923,7.32802 v 31.267331 c 0,4.04818 3.49522,7.32802 7.80923,7.32802 h 33.32058 c 4.31401,0 7.80922,-3.27984 7.80922,-7.32802 z m -15.61846,23.939311 h -17.7021 V -4.0151408 h 17.7021 z"
   id="path259-7-7"
   style="fill:#ff7700;fill-opacity:1;stroke-width:0.947612" /><path
   d="m 619.61648,580.06717 c 0,-4.04817 -3.49521,-7.32802 -7.80922,-7.32802 h -33.32058 c -4.31401,0 -7.80923,3.27985 -7.80923,7.32802 v 31.26733 c 0,4.04818 3.49522,7.32802 7.80923,7.32802 h 33.32058 c 4.31401,0 7.80922,-3.27984 7.80922,-7.32802 z m -15.61846,23.93931 h -17.7021 V 587.3952 h 17.7021 z"
   id="path259-7-7-1"
   style="fill:#ff7700;fill-opacity:1;stroke-width:0.947612" /><path
   d="m 29.322899,580.0656 c 0,-4.04817 -3.49521,-7.32802 -7.80922,-7.32802 h -33.32058 c -4.31401,0 -7.80923,3.27985 -7.80923,7.32802 v 31.26733 c 0,4.04818 3.49522,7.32802 7.80923,7.32802 h 33.32058 c 4.31401,0 7.80922,-3.27984 7.80922,-7.32802 z m -15.61846,23.93931 H -3.9976609 V 587.39363 H 13.704439 Z"
   id="path259-7-7-1-1"
   style="fill:#ff7700;fill-opacity:1;stroke-width:0.947612" />
<path
   d="m 190.9194,376.64509 c 0,-4.04817 -3.49523,-7.32802 -7.80924,-7.32802 h -33.32057 c -4.31402,0 -7.80924,3.27985 -7.80924,7.32802 v 31.26733 c 0,4.04818 3.49522,7.32802 7.80924,7.32802 h 33.32057 c 4.31401,0 7.80924,-3.27984 7.80924,-7.32802 z m -15.61946,23.93931 h -17.70209 v -16.61128 h 17.70209 z"
   id="path261"
   style="stroke-width:0.947612" />
<path
   d="m 524.12908,376.64509 c 0,-4.04817 -3.49523,-7.32802 -7.80923,-7.32802 h -33.32058 c -4.31401,0 -7.80923,3.27985 -7.80923,7.32802 v 31.26733 c 0,4.04818 3.49522,7.32802 7.80923,7.32802 h 33.32058 c 4.314,0 7.80923,-3.27984 7.80923,-7.32802 z m -15.61945,23.93931 h -17.70211 v -16.61128 h 17.70211 z"
   id="path263"
   style="stroke-width:0.947612" />
<path
   d="m 524.12908,309.22418 c 0,-12.12249 -10.51112,-21.98498 -23.42868,-21.98498 H 365.33348 c -12.91855,0 -23.42869,9.86342 -23.42869,21.98498 v 25.40528 c 0,12.12249 10.51111,21.98498 23.42869,21.98498 h 135.36593 c 12.91855,0 23.42869,-9.86341 23.42869,-21.98498 v -25.40528 z m -15.61945,25.40528 c 0,4.04175 -3.50305,7.32802 -7.80923,7.32802 H 365.33348 c -4.30716,0 -7.80923,-3.28719 -7.80923,-7.32802 v -25.40528 c 0,-4.04174 3.50304,-7.32802 7.80923,-7.32802 h 135.36593 c 4.30717,0 7.80924,3.28719 7.80924,7.32802 v 25.40528 z"
   id="path265"
   style="stroke-width:0.947612" />
<path
   d="m 224.76138,279.42283 h -56.22886 c -4.31399,0 -7.80923,3.27985 -7.80923,7.32802 0,4.04818 3.49524,7.32803 7.80923,7.32803 h 56.22886 c 4.314,0 7.80923,-3.27985 7.80923,-7.32803 0,-4.04817 -3.49523,-7.32802 -7.80923,-7.32802 z"
   id="path267"
   style="stroke-width:0.947612" />
<path
   d="m 224.76138,310.69016 h -56.22886 c -4.31399,0 -7.80923,3.27984 -7.80923,7.32801 0,4.04818 3.49524,7.32803 7.80923,7.32803 h 56.22886 c 4.314,0 7.80923,-3.27985 7.80923,-7.32803 0,-4.04817 -3.49523,-7.32801 -7.80923,-7.32801 z"
   id="path269"
   style="stroke-width:0.947612" />
<path
   d="m 224.76138,164.12331 h -21.34603 v -8.30564 c 0,-4.04818 -3.49523,-7.32802 -7.80924,-7.32802 -4.31401,0 -7.80923,3.27984 -7.80923,7.32802 v 8.30564 h -6.76839 c -10.04744,0 -18.22254,7.67134 -18.22254,17.09963 v 15.63366 c 0,9.4283 8.1751,17.09964 18.22254,17.09964 h 6.76839 v 20.51902 h -21.34603 c -4.31401,0 -7.80923,3.27983 -7.80923,7.32801 0,4.04817 3.49522,7.32803 7.80923,7.32803 h 21.34603 v 8.30563 c 0,4.04818 3.49522,7.32803 7.80923,7.32803 4.31401,0 7.80924,-3.27985 7.80924,-7.32803 v -8.30563 h 6.7684 c 10.04742,0 18.22253,-7.67134 18.22253,-17.09964 V 216.398 c 0,-9.4283 -8.17511,-17.09963 -18.22253,-17.09963 h -6.7684 v -20.51901 h 21.34603 c 4.314,0 7.80923,-3.27985 7.80923,-7.32803 0,-4.04817 -3.49523,-7.32802 -7.80923,-7.32802 z m -14.57861,49.83293 c 1.43605,0 2.60308,1.09512 2.60308,2.44268 v 15.63366 c 0,1.34755 -1.16703,2.44268 -2.60308,2.44268 h -6.76839 V 213.95624 Z M 187.7959,199.29928 h -6.76839 c -1.43605,0 -2.60309,-1.09512 -2.60309,-2.44268 v -15.63366 c 0,-1.34755 1.16704,-2.44267 2.60309,-2.44267 h 6.76839 z"
   id="path271"
   style="stroke-width:0.947612" />
<g
   id="g273"
   transform="matrix(0.98426667,0,0,0.91795327,44.222731,119.17573)">
</g>
<g
   id="g275"
   transform="matrix(0.98426667,0,0,0.91795327,44.222731,119.17573)">
</g>
<g
   id="g277"
   transform="matrix(0.98426667,0,0,0.91795327,44.222731,119.17573)">
</g>
<g
   id="g279"
   transform="matrix(0.98426667,0,0,0.91795327,44.222731,119.17573)">
</g>
<g
   id="g281"
   transform="matrix(0.98426667,0,0,0.91795327,44.222731,119.17573)">
</g>
<g
   id="g283"
   transform="matrix(0.98426667,0,0,0.91795327,44.222731,119.17573)">
</g>
<g
   id="g285"
   transform="matrix(0.98426667,0,0,0.91795327,44.222731,119.17573)">
</g>
<g
   id="g287"
   transform="matrix(0.98426667,0,0,0.91795327,44.222731,119.17573)">
</g>
<g
   id="g289"
   transform="matrix(0.98426667,0,0,0.91795327,44.222731,119.17573)">
</g>
<g
   id="g291"
   transform="matrix(0.98426667,0,0,0.91795327,44.222731,119.17573)">
</g>
<g
   id="g293"
   transform="matrix(0.98426667,0,0,0.91795327,44.222731,119.17573)">
</g>
<g
   id="g295"
   transform="matrix(0.98426667,0,0,0.91795327,44.222731,119.17573)">
</g>
<g
   id="g297"
   transform="matrix(0.98426667,0,0,0.91795327,44.222731,119.17573)">
</g>
<g
   id="g299"
   transform="matrix(0.98426667,0,0,0.91795327,44.222731,119.17573)">
</g>
<g
   id="g301"
   transform="matrix(0.98426667,0,0,0.91795327,44.222731,119.17573)">
</g>
<text
   xml:space="preserve"
   id="text461"
   style="font-style:normal;font-variant:normal;font-weight:normal;font-stretch:normal;font-size:26.6667px;line-height:1.25;font-family:aakar;-inkscape-font-specification:aakar;letter-spacing:0px;word-spacing:0px;white-space:pre;shape-inside:url(#rect463);fill:#05009a;fill-opacity:0.618489"
   transform="matrix(2.042904,0,0,2.4596834,-17.628057,-89.004295)"><tspan
     x="89.134766"
     y="66.54714"
     id="tspan1276"><tspan
       style="font-family:Acme;-inkscape-font-specification:Acme;fill:#2453ff;fill-opacity:0.84836"
       id="tspan1274">Point of Sale</tspan></tspan></text></svg>
